<svg xmlns="http://www.w3.org/2000/svg" version="1.1" xmlns:xlink="http://www.w3.org/1999/xlink" xmlns:svgjs="http://svgjs.com/svgjs" width="1440" height="560" preserveAspectRatio="none" viewBox="0 0 1440 560"><g mask="url(&quot;#SvgjsMask1001&quot;)" fill="none"><rect width="1440" height="560" x="0" y="0" fill="rgba(6, 25, 63, 1)"></rect><path d="M268.255,705.138C307.742,705.264,349.678,694.275,369.095,659.892C388.278,625.923,375.434,584.818,354.952,551.617C335.675,520.369,304.971,496.469,268.255,496.432C231.481,496.395,200.464,520.084,181.256,551.443C160.997,584.516,149.414,625.501,168.52,659.254C187.841,693.387,229.033,705.013,268.255,705.138" fill="rgba(28, 83, 142, 0.4)" class="triangle-float2"></path><path d="M540.1051955039879 251.29274436713325L603.1209638522708 323.78409343175554 675.6123129168931 260.76832508347263 612.5965445686102 188.27697601885038z" fill="rgba(28, 83, 142, 0.4)" class="triangle-float1"></path><path d="M1169.681,289.617C1224.398,286.733,1262.557,242.445,1290.738,195.454C1320.049,146.579,1348.757,87.98,1320.172,38.677C1291.639,-10.537,1226.417,-17.484,1169.681,-13.344C1120.906,-9.785,1079.684,17.215,1052.962,58.174C1022.897,104.258,999.524,160.367,1024.301,209.497C1051.005,262.448,1110.459,292.738,1169.681,289.617" fill="rgba(28, 83, 142, 0.4)" class="triangle-float1"></path><path d="M858.858,681.965C910.195,683.419,968.167,676.088,993.408,631.361C1018.394,587.086,992.493,535.217,966.244,491.678C941.152,450.059,907.452,408.804,858.858,408.184C809.476,407.554,770.911,445.878,746.621,488.878C722.799,531.049,712.55,582.222,736.89,624.096C761.128,665.794,810.646,680.6,858.858,681.965" fill="rgba(28, 83, 142, 0.4)" class="triangle-float2"></path><path d="M397.38900133242504 433.51201339224326L488.9306461973681 390.82544335161504 446.2440761567399 299.28379848667197 354.7024312917968 341.9703685273002z" fill="rgba(28, 83, 142, 0.4)" class="triangle-float2"></path><path d="M1164.9737598912368 180.3499435233913L1288.020663403586 243.19325470716447 1283.8055459302834 122.48808312442793z" fill="rgba(28, 83, 142, 0.4)" class="triangle-float3"></path></g><defs><mask id="SvgjsMask1001"><rect width="1440" height="560" fill="#ffffff"></rect></mask><style>
            @keyframes float1 {
                0%{transform: translate(0, 0)}
                50%{transform: translate(-10px, 0)}
                100%{transform: translate(0, 0)}
            }

            .triangle-float1 {
                animation: float1 5s infinite;
            }

            @keyframes float2 {
                0%{transform: translate(0, 0)}
                50%{transform: translate(-5px, -5px)}
                100%{transform: translate(0, 0)}
            }

            .triangle-float2 {
                animation: float2 4s infinite;
            }

            @keyframes float3 {
                0%{transform: translate(0, 0)}
                50%{transform: translate(0, -10px)}
                100%{transform: translate(0, 0)}
            }

            .triangle-float3 {
                animation: float3 6s infinite;
            }
        </style></defs></svg>