<svg xmlns="http://www.w3.org/2000/svg" version="1.1" xmlns:xlink="http://www.w3.org/1999/xlink" xmlns:svgjs="http://svgjs.com/svgjs" width="1440" height="560" preserveAspectRatio="none" viewBox="0 0 1440 560"><g mask="url(&quot;#SvgjsMask1146&quot;)" fill="none"><rect width="1440" height="560" x="0" y="0" fill="rgba(225, 225, 225, 1)"></rect><path d="M0,496.479C91.625,483.923,168.833,433.56,249,387.451C333.465,338.869,444.434,309.992,481.154,219.736C517.836,129.572,446.419,34.153,431.892,-62.097C417.5,-157.455,452.356,-264.904,396.179,-343.291C339.127,-422.898,232.515,-444.24,138.457,-471.541C44.659,-498.766,-49.826,-509.745,-147.101,-500.979C-263.497,-490.489,-413.967,-512.325,-479.879,-415.817C-547.697,-316.518,-431.572,-183.492,-445.505,-64.054C-458.839,50.247,-589.349,144.127,-558.119,254.884C-527.336,364.055,-401.187,417.226,-297.093,462.286C-203.721,502.704,-100.803,510.293,0,496.479" fill="#b4b4b4"></path><path d="M1440 913.8779999999999C1519.721 925.067 1600.891 955.9590000000001 1676.219 927.5640000000001 1757.771 896.822 1842.0059999999999 838.063 1864.497 753.861 1886.943 669.828 1796.612 596.527 1787.755 510 1778.2930000000001 417.56100000000004 1856.5529999999999 319.304 1811.687 237.93099999999998 1767.267 157.36700000000002 1662.104 123.44200000000001 1570.422 115.82400000000001 1485.46 108.76400000000001 1409.537 159.13 1333.772 198.221 1270.748 230.73899999999998 1209.062 266.398 1167.382 323.775 1127.7930000000001 378.273 1126.202 447.743 1105.865 511.959 1080.761 591.228 1003.871 667.929 1033.824 745.495 1063.442 822.194 1166.9180000000001 835.256 1242.869 866.742 1306.571 893.15 1371.71 904.293 1440 913.8779999999999" fill="#ffffff"></path></g><defs><mask id="SvgjsMask1146"><rect width="1440" height="560" fill="#ffffff"></rect></mask></defs></svg>