<svg xmlns="http://www.w3.org/2000/svg" version="1.1" xmlns:xlink="http://www.w3.org/1999/xlink" xmlns:svgjs="http://svgjs.com/svgjs" width="1440" height="560" preserveAspectRatio="none" viewBox="0 0 1440 560"><g mask="url(&quot;#SvgjsMask1043&quot;)" fill="none"><rect width="1440" height="560" x="0" y="0" fill="rgba(6, 25, 63, 1)"></rect><path d="M356.52 70.55 a148.92 148.92 0 1 0 297.84 0 a148.92 148.92 0 1 0 -297.84 0z" fill="rgba(28, 83, 142, 0.4)" class="triangle-float2"></path><path d="M741.2 77.86 a181.16 181.16 0 1 0 362.32 0 a181.16 181.16 0 1 0 -362.32 0z" fill="rgba(28, 83, 142, 0.4)" class="triangle-float1"></path><path d="M1464.216,759.795C1514.682,759.34,1566.86,747.896,1594.769,705.847C1625.583,659.423,1632.195,597.817,1603.385,550.123C1575.361,503.729,1518.397,491.197,1464.216,489.72C1406.466,488.145,1341.564,492.978,1311.25,542.157C1279.927,592.973,1295.192,659.403,1329.517,708.241C1359.147,750.398,1412.69,760.26,1464.216,759.795" fill="rgba(28, 83, 142, 0.4)" class="triangle-float1"></path><path d="M688.4 200.02 a172.45 172.45 0 1 0 344.9 0 a172.45 172.45 0 1 0 -344.9 0z" fill="rgba(28, 83, 142, 0.4)" class="triangle-float2"></path><path d="M1043.29 553.13 a161.78 161.78 0 1 0 323.56 0 a161.78 161.78 0 1 0 -323.56 0z" fill="rgba(28, 83, 142, 0.4)" class="triangle-float1"></path><path d="M90.906,465.404C111.061,464.375,126.118,448.407,135.247,430.409C143.441,414.254,143.242,395.507,134.369,379.715C125.3,363.575,109.4,352.361,90.906,351.495C70.778,350.552,50.523,358.244,39.768,375.284C28.304,393.447,27.364,416.694,37.964,435.374C48.696,454.286,69.189,466.512,90.906,465.404" fill="rgba(28, 83, 142, 0.4)" class="triangle-float2"></path><path d="M174.768,590.569C205.468,589.95,231.404,569.207,245.698,542.031C259.011,516.721,257.797,486.128,242.364,462.052C228.052,439.725,201.287,431.589,174.768,431.377C147.786,431.161,120.286,438.535,105.275,460.957C88.523,485.981,84.477,518.453,98.707,544.993C113.676,572.912,143.095,591.207,174.768,590.569" fill="rgba(28, 83, 142, 0.4)" class="triangle-float2"></path><path d="M204.98 284.52 a170.68 170.68 0 1 0 341.36 0 a170.68 170.68 0 1 0 -341.36 0z" fill="rgba(28, 83, 142, 0.4)" class="triangle-float2"></path></g><defs><mask id="SvgjsMask1043"><rect width="1440" height="560" fill="#ffffff"></rect></mask><style>
            @keyframes float1 {
                0%{transform: translate(0, 0)}
                50%{transform: translate(-10px, 0)}
                100%{transform: translate(0, 0)}
            }

            .triangle-float1 {
                animation: float1 5s infinite;
            }

            @keyframes float2 {
                0%{transform: translate(0, 0)}
                50%{transform: translate(-5px, -5px)}
                100%{transform: translate(0, 0)}
            }

            .triangle-float2 {
                animation: float2 4s infinite;
            }

            @keyframes float3 {
                0%{transform: translate(0, 0)}
                50%{transform: translate(0, -10px)}
                100%{transform: translate(0, 0)}
            }

            .triangle-float3 {
                animation: float3 6s infinite;
            }
        </style></defs></svg>